<svg width="58" height="58" xmlns="http://www.w3.org/2000/svg" xmlns:xlink="http://www.w3.org/1999/xlink" overflow="hidden"><defs><clipPath id="clip0"><path d="M733 352 791 352 791 410 733 410Z" fill-rule="evenodd" clip-rule="evenodd"/></clipPath><clipPath id="clip1"><path d="M734 353 790 353 790 409 734 409Z" fill-rule="evenodd" clip-rule="evenodd"/></clipPath><clipPath id="clip2"><path d="M734 353 790 353 790 409 734 409Z" fill-rule="evenodd" clip-rule="evenodd"/></clipPath><clipPath id="clip3"><path d="M734 353 790 353 790 409 734 409Z" fill-rule="evenodd" clip-rule="evenodd"/></clipPath></defs><g clip-path="url(#clip0)" transform="translate(-733 -352)"><g clip-path="url(#clip1)"><g clip-path="url(#clip2)"><g clip-path="url(#clip3)"><path d="M770.108 389.4C774.658 385.025 774.892 377.792 770.575 373.125 775.183 375.517 778.975 379.192 781.192 381.642 778.858 383.917 774.892 387.3 770.108 389.4ZM747.183 377.383C749.108 375.75 751.15 374.35 753.367 373.183 749.108 377.85 749.342 385.025 753.892 389.4 749.108 387.3 745.083 383.917 742.808 381.642 744.15 380.125 745.608 378.725 747.183 377.383L747.183 377.383ZM762 390.333C756.867 390.333 752.667 386.133 752.667 381 752.667 375.867 756.867 371.667 762 371.667 767.133 371.667 771.333 375.867 771.333 381 771.333 386.133 767.133 390.333 762 390.333ZM784.692 380.008C781.308 376.042 772.442 367 762 367 751.558 367 742.692 376.042 739.308 380.008 738.433 381.058 738.492 382.517 739.425 383.508 742.867 387.125 751.675 395 762 395 772.325 395 781.133 387.125 784.633 383.508 785.508 382.575 785.567 381.058 784.692 380.008Z" fill="#1C9CD6"/><path d="M767.833 381C767.833 384.222 765.222 386.833 762 386.833 758.778 386.833 756.167 384.222 756.167 381 756.167 377.778 758.778 375.167 762 375.167 765.222 375.167 767.833 377.778 767.833 381Z" fill="#1C9CD6"/></g></g></g></g></svg>