<svg width="58" height="58" xmlns="http://www.w3.org/2000/svg" xmlns:xlink="http://www.w3.org/1999/xlink" overflow="hidden"><defs><clipPath id="clip0"><path d="M1010 352 1068 352 1068 410 1010 410Z" fill-rule="evenodd" clip-rule="evenodd"/></clipPath><clipPath id="clip1"><path d="M1011 353 1068 353 1068 409 1011 409Z" fill-rule="evenodd" clip-rule="evenodd"/></clipPath><clipPath id="clip2"><path d="M1011 353 1068 353 1068 409 1011 409Z" fill-rule="evenodd" clip-rule="evenodd"/></clipPath><clipPath id="clip3"><path d="M1011 353 1068 353 1068 409 1011 409Z" fill-rule="evenodd" clip-rule="evenodd"/></clipPath></defs><g clip-path="url(#clip0)" transform="translate(-1010 -352)"><g clip-path="url(#clip1)"><g clip-path="url(#clip2)"><g clip-path="url(#clip3)"><path d="M29.1667 19.25C29.1667 19.8943 28.6443 20.4167 28 20.4167 27.3557 20.4167 26.8333 19.8943 26.8333 19.25 26.8333 18.6057 27.3557 18.0833 28 18.0833 28.6443 18.0833 29.1667 18.6057 29.1667 19.25Z" fill="#1C9CD6" transform="matrix(1.01786 0 -0 1 1011 353)"/><path d="M29.1667 42.5833C29.1667 43.2277 28.6443 43.75 28 43.75 27.3557 43.75 26.8333 43.2277 26.8333 42.5833 26.8333 41.939 27.3557 41.4167 28 41.4167 28.6443 41.4167 29.1667 41.939 29.1667 42.5833Z" fill="#1C9CD6" transform="matrix(1.01786 0 -0 1 1011 353)"/><path d="M40.8333 30.3333C40.8333 30.9777 40.311 31.5 39.6667 31.5 39.0223 31.5 38.5 30.9777 38.5 30.3333 38.5 29.689 39.0223 29.1667 39.6667 29.1667 40.311 29.1667 40.8333 29.689 40.8333 30.3333Z" fill="#1C9CD6" transform="matrix(1.01786 0 -0 1 1011 353)"/><path d="M17.5 30.3333C17.5 30.9777 16.9777 31.5 16.3333 31.5 15.689 31.5 15.1667 30.9777 15.1667 30.3333 15.1667 29.689 15.689 29.1667 16.3333 29.1667 16.9777 29.1667 17.5 29.689 17.5 30.3333Z" fill="#1C9CD6" transform="matrix(1.01786 0 -0 1 1011 353)"/><path d="M29.1667 22.1667 26.8333 22.1667 26.8333 30.3333C26.8333 30.625 26.95 30.9167 27.1833 31.15L32.9583 36.925 34.5917 35.2917 29.1667 29.8667 29.1667 22.1667Z" fill="#1C9CD6" transform="matrix(1.01786 0 -0 1 1011 353)"/><path d="M28 47.25C18.9583 47.25 11.6667 39.9583 11.6667 30.9167 11.6667 21.875 18.9583 14.5833 28 14.5833 37.0417 14.5833 44.3333 21.875 44.3333 30.9167 44.3333 39.9583 37.0417 47.25 28 47.25L28 47.25ZM41.825 16.6833 43.575 14.9333C44.2167 14.2333 44.2167 13.1833 43.5167 12.4833 42.875 11.8417 41.7667 11.7833 41.0667 12.425L39.0833 14.4667C36.2833 12.6 33.075 11.4333 29.75 11.2L29.75 8.75 35 8.75 35 5.25 21 5.25 21 8.75 26.25 8.75 26.25 11.1417C16.975 11.9583 9.50833 19.1333 8.34167 28.4083 7.175 37.6833 12.6 46.4917 21.4083 49.5833 30.2167 52.675 39.9583 49.2917 44.9167 41.3583 49.875 33.425 48.475 23.1583 41.825 16.6833L41.825 16.6833Z" fill="#1C9CD6" transform="matrix(1.01786 0 -0 1 1011 353)"/></g></g></g></g></svg>